<svg width="512" height="512" viewBox="0 0 512 512" fill="none" xmlns="http://www.w3.org/2000/svg">
<g clip-path="url(#clip0_32_125)">
<path d="M399.208 0H112.792C50.4988 0 0 50.4988 0 112.792V399.208C0 461.501 50.4988 512 112.792 512H399.208C461.501 512 512 461.501 512 399.208V112.792C512 50.4988 461.501 0 399.208 0Z" fill="white"/>
<path d="M458.551 404.644L445.847 377.691C443.043 371.739 435.947 369.221 430.053 372.083C429.709 372.254 429.366 372.426 429.08 372.541C421.755 376.089 413.114 371.339 412.198 363.27C408.764 332.654 400.581 309.42 389.479 292.882C382.612 282.639 374.715 274.97 366.074 269.706C348.277 258.833 330.594 253.797 308.448 253.625C300.035 253.568 294.37 244.984 297.632 237.201C297.632 237.087 297.746 236.972 297.746 236.858C300.207 231.078 306.788 228.274 312.682 230.449C322.983 234.168 338.033 238.346 356.346 238.346C402.126 238.346 440.353 209.046 453.401 151.363C454.889 144.724 450.368 138.258 443.672 137.228L414.258 132.65C408.192 131.734 402.412 135.568 400.982 141.52C397.663 155.197 389.479 177.801 370.767 182.78C356.689 186.499 342.268 184.84 326.817 178.488C320.293 175.798 317.489 168.072 320.866 161.892L335 135.854L355.602 97.8563C358.692 92.1337 356.574 84.9805 350.852 81.833L324.642 67.641C318.92 64.5508 311.767 66.6682 308.619 72.3908L277.603 129.559C273.94 136.312 265.013 137.8 259.29 132.707C243.668 118.629 210.82 96.0823 161.034 96.0823C111.247 96.0823 82.0619 127.099 68.8999 161.491C66.382 168.072 70.2161 175.397 77.0832 177.114L106.097 184.439C111.705 185.87 117.542 182.951 119.831 177.629C125.782 163.38 136.198 154.395 150.79 150.962C172.479 145.869 199.833 153.652 219.633 169.389C224.268 173.051 225.584 179.46 222.666 184.611C213.166 201.263 202.465 227.988 199.089 266.902C198.402 274.97 198.002 283.497 198.002 292.653C198.002 324.07 206.013 360.18 191.077 360.18C179.689 360.18 162.979 345.816 148.787 328.648C140.089 318.119 132.306 306.616 127.27 296.659C123.837 289.906 118.057 284.527 110.789 282.524C96.6545 278.518 82.8631 286.129 78.1133 298.891L52.9339 366.875C50.6449 372.998 53.7923 379.751 59.9155 382.04L87.8417 392.398C93.9649 394.687 100.718 391.54 103.007 385.416L103.293 384.73C106.268 376.775 116.512 374.372 122.578 380.323C136.77 394.286 161.72 413.8 190.677 413.8C193.652 413.8 196.514 413.514 199.318 413.114C230.334 408.536 252.71 378.893 253.167 325.1C253.167 319.778 256.887 315.143 261.98 313.827C296.659 304.728 322.353 304.728 336.545 314.285C349.707 323.155 354.972 341.581 357.833 361.61C361.496 387.248 361.21 415.517 368.649 429.652C375.745 443.1 389.422 449.452 404.587 443.272C409.28 441.383 437.377 427.821 453 420.21C458.837 417.406 461.241 410.424 458.494 404.587L458.551 404.644Z" fill="#2FB79F"/>
</g>
<defs>
<clipPath id="clip0_32_125">
<rect width="512" height="512" fill="white"/>
</clipPath>
</defs>
</svg>
